<?xml version="1.0" encoding="UTF-8"?>
<!DOCTYPE svg PUBLIC "-//W3C//DTD SVG 1.1//EN" "http://www.w3.org/Graphics/SVG/1.1/DTD/svg11.dtd">
<!-- Creator: CorelDRAW 2017 -->
<svg xmlns="http://www.w3.org/2000/svg" xml:space="preserve" width="210mm" height="297mm" version="1.1" style="shape-rendering:geometricPrecision; text-rendering:geometricPrecision; image-rendering:optimizeQuality; fill-rule:evenodd; clip-rule:evenodd"
viewBox="0 0 21000 29700"
 xmlns:xlink="http://www.w3.org/1999/xlink">
 <defs>
  <style type="text/css">
   <![CDATA[
    .str1 {stroke:#528ACF;stroke-width:20}
    .str0 {stroke:#6CCBFA;stroke-width:20}
    .fil0 {fill:#4A9AB0}
    .fil4 {fill:#528ACF}
    .fil2 {fill:#6CCBFA}
    .fil6 {fill:#AD5389}
    .fil3 {fill:url(#id0)}
    .fil1 {fill:url(#id1)}
    .fil5 {fill:url(#id2)}
   ]]>
  </style>
  <linearGradient id="id0" gradientUnits="userSpaceOnUse" x1="17326" y1="16256" x2="17831" y2="17480">
   <stop offset="0" style="stop-opacity:1; stop-color:#FFD009"/>
   <stop offset="1" style="stop-opacity:1; stop-color:#FEFEFE"/>
  </linearGradient>
  <linearGradient id="id1" gradientUnits="userSpaceOnUse" xlink:href="#id0" x1="8977" y1="11440" x2="9483" y2="12663">
  </linearGradient>
  <linearGradient id="id2" gradientUnits="userSpaceOnUse" xlink:href="#id0" x1="8634" y1="21112" x2="9139" y2="22335">
  </linearGradient>
 </defs>
 <g id="Слой_x0020_1">
  <metadata id="CorelCorpID_0Corel-Layer"/>
  <g id="_1577974577360">
   <path class="fil0" d="M16620 14821c0,-811 -1015,-1579 -2572,-2055 359,-1586 200,-2849 -504,-3253 -162,-95 -352,-140 -559,-140l0 556c115,0 207,22 284,65 339,195 486,935 372,1888 -27,234 -72,481 -127,733 -489,-120 -1023,-212 -1584,-272 -337,-461 -686,-881 -1038,-1247 813,-756 1576,-1170 2095,-1170l0 -556c-686,0 -1584,489 -2492,1337 -908,-843 -1806,-1327 -2492,-1327l0 556c516,0 1282,412 2095,1162 -349,367 -698,783 -1030,1245 -564,60 -1098,152 -1586,274 -57,-249 -100,-491 -130,-723 -117,-953 27,-1694 364,-1891 75,-45 172,-65 287,-65l0 -556c-210,0 -399,45 -564,140 -701,404 -858,1664 -496,3245 -1551,479 -2562,1245 -2562,2053 0,811 1015,1579 2572,2055 -359,1586 -200,2849 504,3253 162,95 352,140 561,140 686,0 1584,-489 2492,-1337 908,843 1806,1327 2492,1327 210,0 399,-45 564,-140 701,-404 858,-1664 496,-3245 1547,-476 2557,-1245 2557,-2053l0 0zm-3248 -1664c-92,322 -207,654 -337,985 -102,-200 -210,-399 -327,-599 -115,-200 -237,-394 -359,-584 354,52 696,117 1023,197l0 0zm-1142 2656c-195,337 -394,656 -601,953 -372,32 -748,50 -1127,50 -377,0 -753,-17 -1122,-47 -207,-297 -409,-614 -604,-948 -190,-327 -362,-659 -519,-993 155,-334 329,-668 516,-995 195,-337 394,-656 601,-953 372,-32 748,-50 1127,-50 377,0 753,17 1122,47 207,297 409,614 604,948 190,327 362,659 519,993 -157,334 -329,668 -516,995zm806 -324c135,334 249,668 344,993 -327,80 -671,147 -1028,200 122,-192 244,-389 359,-591 115,-200 222,-402 324,-601zm-2529 2661c-232,-239 -464,-506 -693,-798 224,10 454,17 686,17 234,0 466,-5 693,-17 -224,292 -456,559 -686,798zm-1856 -1469c-354,-52 -696,-117 -1023,-197 92,-322 207,-654 337,-985 102,200 210,399 327,599 117,200 237,394 359,584l0 0zm1843 -5191c232,239 464,506 693,798 -224,-10 -454,-17 -686,-17 -234,0 -466,5 -693,17 224,-292 456,-559 686,-798zm-1846 1469c-122,192 -244,389 -359,591 -115,200 -222,399 -324,599 -135,-334 -249,-668 -344,-993 327,-77 671,-145 1028,-197l0 0zm-2257 3123c-883,-377 -1454,-871 -1454,-1262 0,-392 571,-888 1454,-1262 215,-92 449,-175 691,-252 142,489 329,998 561,1519 -229,519 -414,1025 -554,1512 -247,-77 -481,-162 -698,-254l0 0zm1342 3564c-339,-195 -486,-935 -372,-1888 27,-234 72,-481 127,-733 489,120 1023,212 1584,272 337,461 686,881 1038,1247 -813,756 -1576,1170 -2095,1170 -112,-2 -207,-25 -282,-67zm5917 -1901c117,953 -27,1694 -364,1891 -75,45 -172,65 -287,65 -516,0 -1282,-412 -2095,-1162 349,-367 698,-783 1030,-1245 564,-60 1098,-152 1586,-274 57,252 102,494 130,726zm960 -1664c-215,92 -449,175 -691,252 -142,-489 -329,-998 -561,-1519 229,-519 414,-1025 554,-1512 247,77 481,162 701,254 883,377 1454,871 1454,1262 -2,392 -574,888 -1457,1262l0 0zm-6608 -6702z"/>
   <circle class="fil0" cx="10499" cy="14821" r="1140"/>
  </g>
  <circle class="fil1" cx="7718" cy="10005" r="1073"/>
  <path class="fil2 str0" d="M11667 14820c0,-644 -522,-1166 -1166,-1166 -644,0 -1166,522 -1166,1166 0,644 522,1166 1166,1166 644,0 1166,-522 1166,-1166z"/>
  <circle class="fil3" cx="16066" cy="14821" r="1073"/>
  <path class="fil4 str1" d="M17139 14821c0,-592 -480,-1073 -1073,-1073 -17,0 -33,0 -49,1 -232,11 -445,95 -616,230 -248,196 -407,500 -407,842 0,341 159,645 407,841 171,136 384,220 617,230 16,1 32,1 49,1 592,0 1073,-480 1073,-1073z"/>
  <circle class="fil5" cx="7374" cy="19677" r="1073"/>
  <path class="fil6" d="M9808 12290c224,-292 456,-559 686,-798 232,239 464,506 693,798 -224,-10 -454,-17 -686,-17 -234,0 -466,5 -693,17zm-434 591c372,-32 748,-50 1127,-50 377,0 753,17 1122,47 207,297 409,614 604,948 190,327 362,659 519,993 -157,334 -329,668 -516,995 -195,337 -394,656 -601,953 -372,32 -748,50 -1127,50 -377,0 -753,-17 -1122,-47 -207,-297 -409,-614 -604,-948 -190,-327 -362,-659 -519,-993 155,-334 329,-668 516,-995 195,-337 394,-656 601,-953zm3612 -2953l0 3c115,0 207,22 284,65 339,195 486,935 372,1888 -27,234 -72,481 -127,733 -489,-120 -1023,-212 -1584,-272 -337,-461 -686,-881 -1038,-1247 812,-755 1574,-1169 2093,-1170zm-5021 5572c102,200 210,399 327,599 117,200 237,394 359,584 -354,-52 -696,-117 -1023,-197 92,-322 207,-654 337,-985zm5024 -6126l0 554c-1,0 -2,0 -3,0l0 -554c1,0 2,0 2,0zm-5500 7653c489,120 1023,212 1584,272 337,461 686,881 1038,1247 -610,567 -1192,942 -1664,1093 0,13 1,25 1,38 0,210 -60,405 -164,570 644,-104 1433,-571 2229,-1315 908,843 1806,1327 2492,1327 210,0 399,-45 564,-140 701,-404 858,-1664 496,-3245 831,-256 1507,-596 1954,-981 -233,-10 -446,-95 -617,-230 -220,149 -487,292 -791,421 -215,92 -449,175 -691,252 -142,-489 -329,-998 -561,-1519 229,-519 414,-1025 554,-1512 247,77 481,162 701,254 303,129 570,273 789,421 171,-135 384,-220 616,-230 -450,-387 -1131,-727 -1969,-984 359,-1586 200,-2849 -504,-3253 -161,-94 -350,-139 -556,-140l0 -3c-686,0 -1584,489 -2492,1337 -638,-592 -1271,-1007 -1829,-1202 78,149 123,318 123,498 0,51 -4,100 -10,149 398,194 851,513 1320,946 -349,367 -698,783 -1030,1245 -564,60 -1098,152 -1586,274 -57,-249 -100,-491 -130,-723 -40,-327 -50,-629 -31,-893 -210,-83 -388,-231 -508,-419 -109,581 -64,1337 130,2185 -1551,479 -2562,1245 -2562,2053 0,811 1015,1579 2572,2055 -162,716 -219,1367 -167,1902 157,-103 342,-165 542,-174 -15,-252 -5,-538 32,-845 27,-234 72,-481 127,-733zm5221 -3482c-115,-200 -237,-394 -359,-584 354,52 696,117 1023,197 -92,322 -207,654 -337,985 -102,-200 -210,-399 -327,-599zm2 2547c115,-200 222,-402 324,-601 135,334 249,668 344,993 -327,80 -671,147 -1028,200 122,-192 244,-389 359,-591zm-2212 1280c234,0 466,-5 693,-17 -224,292 -456,559 -686,798 -232,-239 -464,-506 -693,-798 224,10 454,17 686,17zm-1851 -4410c-122,192 -244,389 -359,591 -115,200 -222,399 -324,599 -135,-334 -249,-668 -344,-993 327,-77 671,-145 1028,-197zm3285 4335c564,-60 1098,-152 1586,-274 57,252 102,494 130,726 117,953 -27,1694 -364,1891 -75,45 -172,65 -287,65 -516,0 -1282,-412 -2095,-1162 349,-367 698,-783 1030,-1245zm-4290 -2469c-229,519 -414,1025 -554,1512 -247,-77 -481,-162 -698,-254 -883,-377 -1454,-871 -1454,-1262 0,-392 571,-888 1454,-1262 215,-92 449,-175 691,-252 142,489 329,998 561,1519z"/>
 </g>
</svg>
