<?xml version="1.0" encoding="UTF-8"?>
<!DOCTYPE svg PUBLIC "-//W3C//DTD SVG 1.1//EN" "http://www.w3.org/Graphics/SVG/1.1/DTD/svg11.dtd">
<!-- Creator: CorelDRAW 2017 -->
<svg xmlns="http://www.w3.org/2000/svg" xml:space="preserve" width="1240px" height="1748px" version="1.1" style="shape-rendering:geometricPrecision; text-rendering:geometricPrecision; image-rendering:optimizeQuality; fill-rule:evenodd; clip-rule:evenodd"
viewBox="0 0 1240 1748"
 xmlns:xlink="http://www.w3.org/1999/xlink">
 <defs>
  <style type="text/css">
   <![CDATA[
    .str2 {stroke:#0B425E;stroke-width:4}
    .str3 {stroke:#0B425E;stroke-width:8}
    .str4 {stroke:white;stroke-width:8}
    .str1 {stroke:#0B425E;stroke-width:2}
    .str0 {stroke:black;stroke-width:2}
    .str5 {stroke:#0B425E;stroke-width:2}
    .fil7 {fill:none}
    .fil6 {fill:#0B425E}
    .fil8 {fill:white}
    .fil4 {fill:url(#id0)}
    .fil2 {fill:url(#id1)}
    .fil1 {fill:url(#id2)}
    .fil3 {fill:url(#id3)}
    .fil5 {fill:url(#id4)}
    .fil0 {fill:url(#id5)}
   ]]>
  </style>
  <linearGradient id="id0" gradientUnits="userSpaceOnUse" x1="282" y1="616" x2="283" y2="561">
   <stop offset="0" style="stop-opacity:1; stop-color:black"/>
   <stop offset="1" style="stop-opacity:1; stop-color:white"/>
  </linearGradient>
  <linearGradient id="id1" gradientUnits="userSpaceOnUse" xlink:href="#id0" x1="1002" y1="616" x2="1001" y2="561">
  </linearGradient>
  <linearGradient id="id2" gradientUnits="userSpaceOnUse" xlink:href="#id0" x1="659" y1="616" x2="658" y2="561">
  </linearGradient>
  <linearGradient id="id3" gradientUnits="userSpaceOnUse" xlink:href="#id0" x1="968" y1="619" x2="969" y2="597">
  </linearGradient>
  <linearGradient id="id4" gradientUnits="userSpaceOnUse" xlink:href="#id0" x1="316" y1="617" x2="316" y2="579">
  </linearGradient>
  <linearGradient id="id5" gradientUnits="userSpaceOnUse" xlink:href="#id0" x1="625" y1="616" x2="626" y2="561">
  </linearGradient>
 </defs>
 <g id="Слой_x0020_1">
  <metadata id="CorelCorpID_0Corel-Layer"/>
  <polygon class="fil0 str0" points="625,626 663,621 831,1273 793,1278 "/>
  <polygon class="fil1 str0" points="660,626 621,621 453,1273 492,1278 "/>
  <polygon class="fil2 str0" points="1003,626 964,621 796,1273 835,1278 "/>
  <path class="fil3 str0" d="M968 626l38 -5 64 250c-2,1 -4,1 -6,3 -8,-2 -16,1 -23,7 -1,0 -3,1 -4,1l0 0c-2,-4 -5,-9 -7,-12l-63 -243z"/>
  <polygon class="fil4 str0" points="282,626 320,621 488,1273 450,1278 "/>
  <polygon class="fil5 str0" points="317,626 278,621 158,1086 198,1086 "/>
  <polygon class="fil6" points="198,1086 215,1021 230,963 299,694 317,626 299,624 278,621 190,963 175,1021 158,1086 "/>
  <polygon class="fil6" points="299,694 369,963 384,1021 450,1278 471,1275 488,1273 471,1205 423,1021 408,963 320,621 299,624 317,626 "/>
  <polygon class="fil6" points="518,1021 471,1205 488,1273 471,1275 492,1278 558,1021 573,963 642,694 660,626 642,624 621,621 533,963 "/>
  <polygon class="fil6" points="230,963 299,694 317,626 299,624 278,621 190,963 175,1021 158,1086 198,1086 215,1021 "/>
  <polygon class="fil6" points="299,694 369,963 384,1021 450,1278 471,1275 488,1273 471,1205 423,1021 408,963 320,621 299,624 317,626 "/>
  <polygon class="fil6" points="642,694 712,963 727,1021 793,1278 814,1275 796,1273 814,1205 766,1021 751,963 663,621 642,624 660,626 "/>
  <polygon class="fil6 str1" points="408,963 320,621 299,624 317,626 299,694 369,963 384,1021 450,1278 471,1275 488,1273 471,1205 423,1021 "/>
  <polygon class="fil6 str2" points="408,963 320,621 299,624 317,626 299,694 369,963 384,1021 450,1278 471,1275 488,1273 471,1205 423,1021 "/>
  <polygon class="fil6 str2" points="230,963 299,694 317,626 299,624 278,621 190,963 175,1021 158,1086 198,1086 215,1021 "/>
  <path class="fil6 str2" d="M200 1089l-166 2 0 54 159 -2 10 -52 0 0c-1,1 -2,1 -2,-2l0 -1z"/>
  <polygon class="fil6 str2" points="518,1021 471,1205 488,1273 471,1275 492,1278 558,1021 573,963 642,694 660,626 642,624 621,621 533,963 "/>
  <polygon class="fil6 str2" points="642,694 712,963 727,1021 793,1278 814,1275 796,1273 814,1205 766,1021 751,963 663,621 642,624 660,626 "/>
  <polygon class="fil6 str2" points="964,621 876,963 861,1021 814,1205 796,1273 814,1275 835,1278 901,1021 916,963 985,694 968,626 986,624 "/>
  <path class="fil6 str2" d="M985 694l45 176c2,3 5,8 7,12l0 0c1,0 1,0 2,-1l0 0c0,-3 -1,-3 -2,-2l0 0 10 -52 13 0 -53 -206 -20 3 -18 2 17 68z"/>
  <polygon class="fil6 str2" points="1206,942 899,942 884,1000 1206,1000 "/>
  <polygon class="fil6 str2" points="861,1000 876,942 751,942 766,1000 "/>
  <polygon class="fil6 str2" points="727,1000 712,942 573,942 558,1000 "/>
  <polygon class="fil6 str2" points="423,1021 408,963 320,621 299,624 317,626 299,694 369,963 384,1021 450,1278 471,1275 488,1273 471,1205 "/>
  <polygon class="fil6 str2" points="408,942 423,1000 518,1000 533,942 "/>
  <polygon class="fil6 str2" points="384,1000 369,942 230,942 215,1000 "/>
  <polygon class="fil6 str2" points="175,1000 190,942 38,942 38,1000 "/>
  <polygon class="fil6 str3" points="621,621 533,963 518,1021 471,1205 488,1273 471,1275 492,1278 558,1021 573,963 642,694 660,626 642,624 "/>
  <polygon class="fil6 str3" points="642,694 712,963 727,1021 793,1278 814,1275 796,1273 814,1205 766,1021 751,963 663,621 642,624 660,626 "/>
  <polygon class="fil6 str3" points="964,621 876,963 861,1021 814,1205 796,1273 814,1275 835,1278 901,1021 916,963 985,694 968,626 986,624 "/>
  <path class="fil6 str3" d="M985 694l45 176c2,3 5,8 7,12l0 0c1,0 1,0 2,-1l0 0c0,-3 -1,-3 -2,-2l0 0 10 -52 13 0 -53 -206 -20 3 -18 2 17 68z"/>
  <polygon class="fil6 str3" points="408,963 320,621 299,624 317,626 299,694 369,963 384,1021 450,1278 471,1275 488,1273 471,1205 423,1021 "/>
  <polygon class="fil6 str3" points="230,963 299,694 317,626 299,624 278,621 190,963 175,1021 158,1086 198,1086 215,1021 "/>
  <polygon class="fil7" points="249,600 259,607 269,613 265,623 261,633 249,633 237,633 233,623 229,613 239,607 "/>
  <polygon class="fil8 str4" points="256,607 246,600 236,607 226,613 230,623 234,633 246,633 258,633 262,623 266,613 "/>
  <polygon class="fil8 str4" points="256,607 246,600 236,607 226,613 230,623 234,633 246,633 258,633 262,623 266,613 "/>
  <polygon class="fil8 str4" points="597,607 589,601 587,600 577,607 567,613 571,623 575,633 578,633 587,633 590,633 599,633 603,623 607,613 "/>
  <polygon class="fil8 str4" points="1050,607 1042,601 1040,600 1030,607 1020,613 1024,623 1028,633 1031,633 1040,633 1043,633 1052,633 1056,623 1060,613 "/>
  <path class="fil6 str2" d="M1020 839l185 -1 1 54 -178 1 -11 -52 0 0c1,1 2,1 2,-2l0 -1z"/>
  <polygon class="fil8 str4" points="865,1266 855,1269 853,1269 851,1280 848,1292 858,1296 868,1301 870,1299 877,1292 879,1290 885,1284 881,1274 876,1264 "/>
  <polygon class="fil8 str4" points="432,1273 430,1264 430,1262 418,1259 407,1257 402,1267 398,1276 400,1279 406,1285 409,1287 415,1294 425,1289 435,1285 "/>
  <polygon class="fil6 str2" points="171,1000 186,942 34,942 34,1000 "/>
  <polygon class="fil6 str2" points="835,1244 791,1240 791,1283 835,1283 "/>
  <polygon class="fil6 str2" points="493,1244 449,1240 449,1283 493,1283 "/>
  <polygon class="fil6 str2" points="323,655 279,659 279,616 323,616 "/>
  <polygon class="fil6 str2" points="665,655 621,659 621,616 665,616 "/>
  <polygon class="fil6 str2" points="1007,655 963,659 963,616 1007,616 "/>
  <rect class="fil7 str5" x="1052" y="831" width="15" height="10"/>
 </g>
</svg>
