<?xml version="1.0" encoding="UTF-8"?>
<!DOCTYPE svg PUBLIC "-//W3C//DTD SVG 1.1//EN" "http://www.w3.org/Graphics/SVG/1.1/DTD/svg11.dtd">
<!-- Creator: CorelDRAW 2017 -->
<svg xmlns="http://www.w3.org/2000/svg" xml:space="preserve" width="2480px" height="3508px" version="1.1" style="shape-rendering:geometricPrecision; text-rendering:geometricPrecision; image-rendering:optimizeQuality; fill-rule:evenodd; clip-rule:evenodd"
viewBox="0 0 2480 3507"
 xmlns:xlink="http://www.w3.org/1999/xlink">
 <defs>
  <style type="text/css">
   <![CDATA[
    .str1 {stroke:#528ACF;stroke-width:2}
    .str0 {stroke:#6CCBFA;stroke-width:2}
    .fil4 {fill:#EF7F1A}
    .fil3 {fill:#4A9AB0}
    .fil7 {fill:#528ACF}
    .fil1 {fill:#639639}
    .fil5 {fill:#6CCBFA}
    .fil0 {fill:#93FA3F}
    .fil9 {fill:#AD5389}
    .fil6 {fill:url(#id0)}
    .fil8 {fill:url(#id1)}
    .fil2 {fill:url(#id2)}
   ]]>
  </style>
  <linearGradient id="id0" gradientUnits="userSpaceOnUse" x1="2046" y1="1920" x2="2106" y2="2064">
   <stop offset="0" style="stop-opacity:1; stop-color:#FFD009"/>
   <stop offset="1" style="stop-opacity:1; stop-color:#FEFEFE"/>
  </linearGradient>
  <linearGradient id="id1" gradientUnits="userSpaceOnUse" xlink:href="#id0" x1="1020" y1="2493" x2="1079" y2="2638">
  </linearGradient>
  <linearGradient id="id2" gradientUnits="userSpaceOnUse" xlink:href="#id0" x1="1060" y1="1351" x2="1120" y2="1495">
  </linearGradient>
 </defs>
 <g id="Слой_x0020_1">
  <metadata id="CorelCorpID_0Corel-Layer"/>
  <path class="fil0" d="M801 2218c-35,23 -57,62 -57,106 0,70 57,127 127,127 45,0 85,-24 108,-60 12,-19 19,-42 19,-67 0,-2 0,-3 0,-5 -2,-68 -58,-122 -127,-122 -2,0 -3,0 -5,0 -21,1 -40,7 -57,16 -2,1 -4,3 -7,4 0,0 0,0 0,0 0,0 0,0 0,0z"/>
  <path class="fil1" d="M1037 1199c1,-6 1,-12 1,-18 0,-21 -5,-41 -15,-59 -21,-40 -64,-68 -112,-68 -70,0 -127,57 -127,127 0,25 7,48 20,68 0,0 0,0 0,1 0,0 0,0 0,-1 14,22 35,39 60,49 0,0 0,0 0,0 0,0 0,0 0,0 14,6 30,9 46,9 64,0 117,-47 126,-109z"/>
  <circle class="fil2" cx="911" cy="1182" r="127"/>
  <path class="fil1" d="M911 1308c64,0 117,-47 126,-109 1,-6 1,-12 1,-18 0,-21 -5,-41 -15,-59 -21,-40 -64,-68 -112,-68 -70,0 -127,57 -127,127 0,25 7,48 20,68 0,0 0,0 0,1 0,0 0,0 0,-1 14,22 35,39 60,49 0,0 0,0 0,0 0,0 0,0 0,0 14,6 30,9 46,9z"/>
  <path class="fil1" d="M911 1308c64,0 117,-47 126,-109 1,-6 1,-12 1,-18 0,-21 -5,-41 -15,-59 -21,-40 -64,-68 -112,-68 -70,0 -127,57 -127,127 0,25 7,48 20,68 0,0 0,0 0,1 0,0 0,0 0,-1 14,22 35,39 60,49 0,0 0,0 0,0 0,0 0,0 0,0 14,6 30,9 46,9z"/>
  <path class="fil1" d="M911 1308c64,0 117,-47 126,-109 1,-6 1,-12 1,-18 0,-21 -5,-41 -15,-59 -21,-40 -64,-68 -112,-68 -70,0 -127,57 -127,127 0,25 7,48 20,68 0,0 0,0 0,1 0,0 0,0 0,-1 14,22 35,39 60,49 0,0 0,0 0,0 0,0 0,0 0,0 14,6 30,9 46,9z"/>
  <path class="fil1" d="M911 1308c64,0 117,-47 126,-109 1,-6 1,-12 1,-18 0,-21 -5,-41 -15,-59 -21,-40 -64,-68 -112,-68 -70,0 -127,57 -127,127 0,25 7,48 20,68 0,0 0,0 0,1 0,0 0,0 0,-1 14,22 35,39 60,49 0,0 0,0 0,0 0,0 0,0 0,0 14,6 30,9 46,9z"/>
  <path class="fil1" d="M911 1308c64,0 117,-47 126,-109 1,-6 1,-12 1,-18 0,-21 -5,-41 -15,-59 -21,-40 -64,-68 -112,-68 -70,0 -127,57 -127,127 0,25 7,48 20,68 0,0 0,0 0,1 0,0 0,0 0,-1 14,22 35,39 60,49 0,0 0,0 0,0 0,0 0,0 0,0 14,6 30,9 46,9z"/>
  <path class="fil1" d="M911 1308c64,0 117,-47 126,-109 1,-6 1,-12 1,-18 0,-21 -5,-41 -15,-59 -21,-40 -64,-68 -112,-68 -70,0 -127,57 -127,127 0,25 7,48 20,68 0,0 0,0 0,1 0,0 0,0 0,-1 14,22 35,39 60,49 0,0 0,0 0,0 0,0 0,0 0,0 14,6 30,9 46,9z"/>
  <path class="fil1" d="M911 1308c64,0 117,-47 126,-109 1,-6 1,-12 1,-18 0,-21 -5,-41 -15,-59 -21,-40 -64,-68 -112,-68 -70,0 -127,57 -127,127 0,25 7,48 20,68 0,0 0,0 0,1 0,0 0,0 0,-1 14,22 35,39 60,49 0,0 0,0 0,0 0,0 0,0 0,0 14,6 30,9 46,9z"/>
  <path class="fil1" d="M911 1308c64,0 117,-47 126,-109 1,-6 1,-12 1,-18 0,-21 -5,-41 -15,-59 -21,-40 -64,-68 -112,-68 -70,0 -127,57 -127,127 0,25 7,48 20,68 0,0 0,0 0,1 0,0 0,0 0,-1 14,22 35,39 60,49 0,0 0,0 0,0 0,0 0,0 0,0 14,6 30,9 46,9z"/>
  <path class="fil1" d="M911 1308c64,0 117,-47 126,-109 1,-6 1,-12 1,-18 0,-21 -5,-41 -15,-59 -21,-40 -64,-68 -112,-68 -70,0 -127,57 -127,127 0,25 7,48 20,68 0,0 0,0 0,1 0,0 0,0 0,-1 14,22 35,39 60,49 0,0 0,0 0,0 0,0 0,0 0,0 14,6 30,9 46,9z"/>
  <path class="fil1" d="M911 1308c64,0 117,-47 126,-109 1,-6 1,-12 1,-18 0,-21 -5,-41 -15,-59 -21,-40 -64,-68 -112,-68 -70,0 -127,57 -127,127 0,25 7,48 20,68 0,0 0,0 0,1 0,0 0,0 0,-1 14,22 35,39 60,49 0,0 0,0 0,0 0,0 0,0 0,0 14,6 30,9 46,9z"/>
  <path class="fil1" d="M911 1308c64,0 117,-47 126,-109 1,-6 1,-12 1,-18 0,-21 -5,-41 -15,-59 -21,-40 -64,-68 -112,-68 -70,0 -127,57 -127,127 0,25 7,48 20,68 0,0 0,0 0,1 0,0 0,0 0,-1 14,22 35,39 60,49 0,0 0,0 0,0 0,0 0,0 0,0 14,6 30,9 46,9z"/>
  <path class="fil1" d="M911 1308c64,0 117,-47 126,-109 1,-6 1,-12 1,-18 0,-21 -5,-41 -15,-59 -21,-40 -64,-68 -112,-68 -70,0 -127,57 -127,127 0,25 7,48 20,68 0,0 0,0 0,1 0,0 0,0 0,-1 14,22 35,39 60,49 0,0 0,0 0,0 0,0 0,0 0,0 14,6 30,9 46,9z"/>
  <path class="fil1" d="M911 1308c64,0 117,-47 126,-109 1,-6 1,-12 1,-18 0,-21 -5,-41 -15,-59 -21,-40 -64,-68 -112,-68 -70,0 -127,57 -127,127 0,25 7,48 20,68 0,0 0,0 0,1 0,0 0,0 0,-1 14,22 35,39 60,49 0,0 0,0 0,0 0,0 0,0 0,0 14,6 30,9 46,9z"/>
  <path class="fil1" d="M911 1308c64,0 117,-47 126,-109 1,-6 1,-12 1,-18 0,-21 -5,-41 -15,-59 -21,-40 -64,-68 -112,-68 -70,0 -127,57 -127,127 0,25 7,48 20,68 0,0 0,0 0,1 0,0 0,0 0,-1 14,22 35,39 60,49 0,0 0,0 0,0 0,0 0,0 0,0 14,6 30,9 46,9z"/>
 </g>
 <g id="Слой_x0020_1_0">
  <metadata id="CorelCorpID_1Corel-Layer"/>
  <g id="_1577974577360">
   <path class="fil3" d="M1963 1750c0,-96 -120,-186 -304,-243 42,-187 24,-336 -60,-384 -19,-11 -42,-17 -66,-17l0 66c14,0 24,3 34,8 40,23 57,110 44,223 -3,28 -9,57 -15,87 -58,-14 -121,-25 -187,-32 -40,-54 -81,-104 -123,-147 96,-89 186,-138 247,-138l0 -66c-81,0 -187,58 -294,158 -107,-100 -213,-157 -294,-157l0 66c61,0 151,49 247,137 -41,43 -82,92 -122,147 -67,7 -130,18 -187,32 -7,-29 -12,-58 -15,-85 -14,-113 3,-200 43,-223 9,-5 20,-8 34,-8l0 -66c-25,0 -47,5 -67,17 -83,48 -101,197 -59,383 -183,57 -303,147 -303,242 0,96 120,186 304,243 -42,187 -24,336 60,384 19,11 42,17 66,17 81,0 187,-58 294,-158 107,100 213,157 294,157 25,0 47,-5 67,-17 83,-48 101,-197 59,-383 183,-56 302,-147 302,-242l0 0 0 0zm-384 -197c-11,38 -24,77 -40,116 -12,-24 -25,-47 -39,-71 -14,-24 -28,-47 -42,-69 42,6 82,14 121,23l0 0 0 0zm-135 314c-23,40 -47,77 -71,113 -44,4 -88,6 -133,6 -45,0 -89,-2 -133,-6 -24,-35 -48,-73 -71,-112 -22,-39 -43,-78 -61,-117 18,-39 39,-79 61,-118 23,-40 47,-77 71,-113 44,-4 88,-6 133,-6 45,0 89,2 133,6 24,35 48,73 71,112 22,39 43,78 61,117 -19,39 -39,79 -61,118zm95 -38c16,39 29,79 41,117 -39,9 -79,17 -121,24 14,-23 29,-46 42,-70 14,-24 26,-47 38,-71l0 0zm-299 314c-27,-28 -55,-60 -82,-94 26,1 54,2 81,2 28,0 55,-1 82,-2 -26,34 -54,66 -81,94zm-219 -173c-42,-6 -82,-14 -121,-23 11,-38 24,-77 40,-116 12,24 25,47 39,71 14,24 28,47 42,69l0 0 0 0zm218 -613c27,28 55,60 82,94 -26,-1 -54,-2 -81,-2 -28,0 -55,1 -82,2 26,-34 54,-66 81,-94zm-218 173c-14,23 -29,46 -42,70 -14,24 -26,47 -38,71 -16,-39 -29,-79 -41,-117 39,-9 79,-17 121,-23l0 0 0 0zm-267 369c-104,-45 -172,-103 -172,-149 0,-46 67,-105 172,-149 25,-11 53,-21 82,-30 17,58 39,118 66,179 -27,61 -49,121 -65,179 -29,-9 -57,-19 -82,-30l0 0 0 0zm158 421c-40,-23 -57,-110 -44,-223 3,-28 9,-57 15,-87 58,14 121,25 187,32 40,54 81,104 123,147 -96,89 -186,138 -247,138 -13,0 -24,-3 -33,-8l0 0zm699 -225c14,113 -3,200 -43,223 -9,5 -20,8 -34,8 -61,0 -151,-49 -247,-137 41,-43 82,-92 122,-147 67,-7 130,-18 187,-32 7,30 12,58 15,86l0 0zm113 -197c-25,11 -53,21 -82,30 -17,-58 -39,-118 -66,-179 27,-61 49,-121 65,-179 29,9 57,19 83,30 104,45 172,103 172,149 0,46 -68,105 -172,149l0 0 0 0zm-780 -791z"/>
   <circle class="fil3" cx="1240" cy="1750" r="135"/>
  </g>
  <circle class="fil4" cx="911" cy="1182" r="127"/>
  <path class="fil5 str0" d="M1378 1750c0,-76 -62,-138 -138,-138 -76,0 -138,62 -138,138 0,76 62,138 138,138 76,0 138,-62 138,-138z"/>
  <circle class="fil6" cx="1897" cy="1750" r="127"/>
  <path class="fil7 str1" d="M2024 1750c0,-70 -57,-127 -127,-127 -2,0 -4,0 -6,0 -27,1 -53,11 -73,27 -29,23 -48,59 -48,99 0,40 19,76 48,99 20,16 45,26 73,27 2,0 4,0 6,0 70,0 127,-57 127,-127l0 0z"/>
  <circle class="fil8" cx="871" cy="2324" r="127"/>
  <path class="fil9" d="M1158 1451c26,-34 54,-66 81,-94 27,28 55,60 82,94 -26,-1 -54,-2 -81,-2 -28,0 -55,1 -82,2zm-51 70c44,-4 88,-6 133,-6 45,0 89,2 133,6 24,35 48,73 71,112 22,39 43,78 61,117 -19,39 -39,79 -61,118 -23,40 -47,77 -71,113 -44,4 -88,6 -133,6 -45,0 -89,-2 -133,-6 -24,-35 -48,-73 -71,-112 -22,-39 -43,-78 -61,-117 18,-39 39,-79 61,-118 23,-40 47,-77 71,-113zm427 -349l0 0c14,0 24,3 34,8 40,23 57,110 44,223 -3,28 -9,57 -15,87 -58,-14 -121,-25 -187,-32 -40,-54 -81,-104 -123,-147 96,-89 186,-138 247,-138zm-593 658c12,24 25,47 39,71 14,24 28,47 42,69 -42,-6 -82,-14 -121,-23 11,-38 24,-77 40,-116l0 0zm593 -723l0 65c0,0 0,0 0,0l0 -65c0,0 0,0 0,0l0 0zm-650 904c58,14 121,25 187,32 40,54 81,104 123,147 -72,67 -141,111 -197,129 0,2 0,3 0,4 0,25 -7,48 -19,67 76,-12 169,-67 263,-155 107,100 213,157 294,157 25,0 47,-5 67,-17 83,-48 101,-197 59,-383 98,-30 178,-70 231,-116 -28,-1 -53,-11 -73,-27 -26,18 -58,34 -93,50 -25,11 -53,21 -82,30 -17,-58 -39,-118 -66,-179 27,-61 49,-121 65,-179 29,9 57,19 83,30 36,15 67,32 93,50 20,-16 45,-26 73,-27 -53,-46 -134,-86 -233,-116 42,-187 24,-336 -60,-384 -19,-11 -41,-16 -66,-17l0 0c-81,0 -187,58 -294,158 -75,-70 -150,-119 -216,-142 9,18 15,38 15,59 0,6 0,12 -1,18 47,23 101,61 156,112 -41,43 -82,92 -122,147 -67,7 -130,18 -187,32 -7,-29 -12,-58 -15,-85 -5,-39 -6,-74 -4,-105 -25,-10 -46,-27 -60,-49 -13,69 -8,158 15,258 -183,57 -303,147 -303,242 0,96 120,186 304,243 -19,85 -26,161 -20,225 19,-12 40,-19 64,-21 -2,-30 -1,-64 4,-100 3,-28 9,-57 15,-87l0 0zm617 -411c-14,-24 -28,-47 -42,-69 42,6 82,14 121,23 -11,38 -24,77 -40,116 -12,-24 -25,-47 -39,-71l0 0zm0 301c14,-24 26,-47 38,-71 16,39 29,79 41,117 -39,9 -79,17 -121,24 14,-23 29,-46 42,-70l0 0zm-261 151c28,0 55,-1 82,-2 -26,34 -54,66 -81,94 -27,-28 -55,-60 -82,-94 26,1 54,2 81,2zm-219 -521c-14,23 -29,46 -42,70 -14,24 -26,47 -38,71 -16,-39 -29,-79 -41,-117 39,-9 79,-17 121,-23l0 0zm388 512c67,-7 130,-18 187,-32 7,30 12,58 15,86 14,113 -3,200 -43,223 -9,5 -20,8 -34,8 -61,0 -151,-49 -247,-137 41,-43 82,-92 122,-147l0 0zm-507 -292c-27,61 -49,121 -65,179 -29,-9 -57,-19 -82,-30 -104,-45 -172,-103 -172,-149 0,-46 67,-105 172,-149 25,-11 53,-21 82,-30 17,58 39,118 66,179l0 0z"/>
 </g>
</svg>
